<?xml version="1.0" encoding="UTF-8" standalone="no"?>
<!-- Created with Inkscape (http://www.inkscape.org/) -->

<svg
   width="240mm"
   height="240mm"
   viewBox="0 0 240 240"
   version="1.1"
   id="svg1"
   xml:space="preserve"
   xmlns="http://www.w3.org/2000/svg"
   xmlns:svg="http://www.w3.org/2000/svg"><defs
     id="defs1" /><path
     id="path2"
     style="fill:#333333;fill-opacity:1"
     d="m 78.962625,31.772009 c -2.732431,0.01436 -4.834478,3.095054 -3.955078,5.65625 1.451022,9.978774 3.51462,19.855344 5.27321,29.768497 l 3.717024,20.131894 c -4.392206,3.84423 -8.127611,8.38111 -11.513564,13.11573 -1.172433,2.23561 -1.691469,4.73201 -2.641296,7.06045 l -1.181077,3.32382 C 52.666245,102.36917 36.733896,93.79151 20.632157,85.53974 19.041118,84.816 17.289867,83.798456 15.486259,84.276259 12.620043,85.13426 11.57838,89.30678 13.72825,91.40287 c 1.268591,1.28161 3.011709,1.90383 4.481298,2.90928 13.690151,8.11162 27.402685,16.18537 41.108546,24.27041 -0.627563,11.58 -1.056532,23.16945 -1.544922,34.75586 2.059591,6.51566 3.784398,13.14729 6.181641,19.55468 0.448903,0.76119 1.276259,1.26279 2.148437,1.36328 0.658066,1.91503 2.808143,2.49525 4.384173,3.4287 2.277235,1.19073 4.556637,2.56472 7.11231,3.0289 2.047051,0.0637 3.5703,-1.64953 4.463594,-3.30682 0.250349,-0.24153 0.507047,-1.26579 0.571173,-0.45546 0.609808,2.20652 1.597893,4.28547 2.323235,6.4549 1.37203,3.69278 2.74437,7.38545 4.11622,11.0783 3.12677,3.14016 5.91985,6.64435 9.4082,9.40234 1.708215,1.01822 4.402735,0.0198 4.607425,-2.08007 -0.22503,-2.97599 -0.71688,-5.9203 -1.10937,-8.87696 0.63521,0.3677 1.35971,0.60237 2.09765,0.60938 0.58756,1.94192 2.6577,2.74092 4.17795,3.81371 1.30634,0.86042 2.65859,1.68655 4.06815,2.34449 0.24259,1.30704 1.32104,2.21942 1.88095,3.38594 1.06263,1.66203 2.02699,3.53546 3.70882,4.65407 2.32097,1.25813 5.46012,0.0102 6.51162,-2.35431 1.20891,-1.77484 2.24551,-3.68453 3.44498,-5.44779 2.55915,-1.69844 5.15168,-3.34548 7.69972,-5.06018 0.14063,-0.55368 0.23554,-1.11717 0.3711,-1.67187 0.71762,0.12801 1.46871,-0.0125 2.11914,-0.33008 -0.37798,2.88497 -0.91409,5.76743 -1.07195,8.66933 0.30352,2.42377 3.79397,3.69405 5.48776,1.85906 2.84515,-2.96497 5.68178,-5.93812 8.5041,-8.92487 2.15063,-6.05498 4.71253,-11.97428 6.41407,-18.17969 0.91514,1.6399 1.85607,3.67056 3.82812,4.25195 2.17509,0.5853 4.18408,-0.82625 6.02148,-1.67383 1.97749,-0.972 4.01242,-1.88683 5.75391,-3.25976 0.60729,0.78981 1.21432,1.57983 1.82226,2.36914 2.48293,-8.16541 4.9675,-16.33032 7.44922,-24.49609 -0.39086,-10.24204 -0.72436,-20.48923 -1.23828,-30.72461 -0.1884,-1.00299 -0.84949,-1.93006 -1.78906,-2.35352 0.0773,-0.71546 -0.0663,-1.46281 -0.44141,-2.08008 15.33099,-8.74735 30.87017,-17.13645 46.13606,-25.99091 1.09246,-0.62651 2.14342,-1.52661 2.36925,-2.83255 0.56368,-2.38412 -1.07693,-5.280031 -3.64789,-5.461693 -2.52961,-0.01218 -4.6656,1.547113 -6.85216,2.608093 -15.11752,8.02949 -30.22774,16.07272 -45.33142,24.12824 -1.21577,-3.40772 -2.27768,-6.87973 -3.69727,-10.20704 -3.51549,-4.82355 -7.46446,-9.31919 -11.65039,-13.57031 3.07159,-16.756837 6.31907,-33.478937 9.20508,-50.267577 0.22073,-1.471269 -0.15257,-3.228731 -1.55954,-3.993877 -1.72349,-1.219916 -4.41106,-1.391832 -5.8956,0.302838 -1.43052,1.525528 -1.28322,3.744155 -1.76294,5.641283 -2.6471,13.88245 -5.12023,27.797766 -7.6159,41.709912 -2.61044,-2.153624 -5.36564,-4.306916 -8.6207,-5.371311 -1.65201,-0.443325 -3.37151,-0.490212 -5.0629,-0.677517 0.29545,-1.684414 0.0434,-3.392879 -0.37019,-5.031519 -0.42778,-2.193814 -0.69696,-4.528396 -1.90451,-6.45596 -1.24059,-1.505949 -3.37646,-1.308666 -5.12449,-1.357319 -5.77844,-0.06701 -11.56768,-0.236476 -17.33909,0.116283 -1.63066,0.203489 -3.18072,1.38755 -3.45058,3.068853 -0.64122,2.215496 -1.00877,4.505104 -1.34043,6.782709 -0.0608,0.938602 -0.0257,1.887477 0.1621,2.810547 -2.92529,0.279952 -6.082785,0.394962 -8.549535,2.198855 -1.86895,1.178243 -3.63523,2.513627 -5.33914,3.916379 -2.77004,-15.275768 -5.51282,-30.553446 -8.453122,-45.796875 -0.537889,-1.732304 -2.336708,-2.948298 -4.142578,-2.828125 z" /><path
     id="path1"
     style="display:inline;fill:#ececec;fill-opacity:1"
     d="m 79.061989,34.430921 c -0.929569,0.03436 -1.771518,0.906159 -1.535285,1.864052 0.468426,4.204475 1.348197,8.352892 2.051974,12.522881 4.577549,24.957939 9.208807,49.912706 13.879797,74.855256 0.34615,1.08619 1.70531,1.38644 2.70862,1.31065 0.45906,-0.0369 0.22868,-0.78523 0.24447,-1.1387 -0.51715,-4.81948 -1.53811,-9.56821 -2.32907,-14.34757 -4.21271,-23.68067 -8.46842,-47.356358 -12.876863,-70.998938 -0.283334,-1.145639 -0.32943,-2.381569 -0.784268,-3.466069 -0.301545,-0.431393 -0.843515,-0.643101 -1.359375,-0.601562 z m 81.757811,0.002 c -0.83528,-0.02874 -1.4623,0.700587 -1.4861,1.50245 -2.11962,10.739418 -4.00642,21.520774 -5.96801,32.29108 -3.15184,17.613519 -6.3327,35.222879 -9.30008,52.868459 -0.1382,1.16242 -0.48697,2.34859 -0.4618,3.50311 0.29468,0.69013 1.22575,0.30906 1.78435,0.18256 0.54889,-0.14936 1.17109,-0.41546 1.12357,-1.08629 2.99453,-15.36856 5.81151,-30.77231 8.68744,-46.163812 2.4195,-13.15505 4.94644,-26.292354 7.25905,-39.463947 0.0732,-0.939679 0.47053,-1.923259 0.19165,-2.85236 -0.30793,-0.252683 -0.67205,-0.400947 -1.01953,-0.626953 -0.26135,-0.09642 -0.53074,-0.159945 -0.81054,-0.154297 z m -45.70704,29.630812 c -1.73241,0.06856 -3.50028,-0.07135 -5.20507,0.285156 -0.81948,0.324967 -0.79067,1.401406 -1.03883,2.124209 -0.42675,1.898451 -0.75781,3.828497 -1.0432,5.746885 1.47709,9.76585 2.87439,19.544997 4.45117,29.294917 0.0441,0.60561 0.93464,0.56567 1.07423,0.0508 0.55809,-2.40091 0.65718,-4.88592 0.98792,-7.32567 0.15096,-0.86119 0.13417,-1.8174 0.54723,-2.65675 1.57735,-0.41037 3.25439,-0.20782 4.87338,-0.28093 1.72917,0.0536 3.48729,-0.11913 5.19498,0.19499 0.63038,0.42345 0.50765,1.3613 0.67577,2.02847 0.37651,2.80246 0.49498,5.72346 1.01563,8.5438 0.50261,0.19744 0.95708,0.17748 1.00982,-0.44827 1.33023,-6.87218 2.31911,-13.80575 3.43304,-20.716197 0.41499,-2.77768 0.91665,-5.556773 1.27784,-8.333578 -0.53499,-2.565347 -0.81858,-5.202829 -1.66366,-7.69099 -0.29137,-0.907385 -1.41433,-0.593585 -2.14106,-0.700817 -4.48081,-0.160035 -8.96632,-0.123686 -13.44918,-0.116005 z m -9.17578,12.789062 c -2.10225,0.292042 -4.28203,0.323034 -6.300775,1.023438 -2.85408,1.737864 -5.57229,3.71684 -8.04101,5.97266 2.09465,11.759137 4.30934,23.498197 6.25968,35.282107 0.11314,0.82656 0.22866,1.65279 0.33993,2.47961 1.00402,0.13183 2.024245,0.18775 3.007805,0.43945 1.0585,1.69264 1.86908,3.52497 2.78711,5.29492 1.44716,0.4249 2.8742,0.92511 4.3457,1.25977 0.74684,-0.40665 0.90115,-1.37455 1.28845,-2.07384 1.06127,-2.40736 1.97616,-4.87454 2.95374,-7.31679 4.96354,0 9.92708,0 14.89062,0 1.23231,3.10757 2.44133,6.22469 3.70703,9.31836 1.187,0.0352 2.29287,-0.55456 3.4288,-0.83883 0.51145,-0.25824 1.28357,-0.21018 1.62814,-0.66393 0.86983,-1.5991 1.47875,-3.32971 2.5915,-4.78044 0.78276,-0.80539 2.01302,-0.43203 3.00977,-0.52344 0.92098,-6.602 2.23701,-13.14104 3.36324,-19.70985 1.08277,-6.05614 2.17939,-12.10993 3.26762,-18.165147 -2.53474,-2.31958 -5.30442,-4.420155 -8.35352,-6.015626 -2.04683,-0.719164 -4.26106,-0.684457 -6.39648,-0.916015 -1.80936,11.524508 -3.50622,23.109378 -5.41407,34.591798 -0.33154,1.53672 -0.44841,3.16932 -1.14062,4.5957 -0.76614,0.27606 -1.49278,-0.67279 -1.31641,-1.41172 0.14831,-0.72695 -0.064,-1.09328 -0.82929,-0.90664 -3.60378,0 -7.20756,0 -10.81133,0 -0.0557,0.77817 0.28129,1.90934 -0.67849,2.26113 -0.64299,0.30934 -1.05013,-0.52096 -1.10537,-1.05359 -1.09726,-5.39724 -1.77092,-10.87064 -2.64226,-16.30739 -1.12427,-7.29582 -2.17825,-14.603587 -3.34341,-21.892335 -0.16537,0.01888 -0.33073,0.03776 -0.4961,0.05664 z m 117.35157,9.806635 c -1.85512,0.31018 -3.42722,1.46807 -5.10081,2.25743 -20.63556,10.93025 -41.24673,21.91373 -61.82166,32.95369 -0.68347,0.46859 -1.60248,0.67136 -2.12832,1.32404 -1.28757,2.2212 -1.99749,4.7333 -3.3229,6.92903 -0.87342,0.97886 -2.17767,1.43531 -3.2433,2.17499 -6.08149,3.67559 -12.26228,7.20873 -18.24044,11.06004 -0.56431,0.28414 -0.37139,1.0082 -0.77734,1.4375 -0.24202,0.51609 0.36438,0.90055 0.80539,0.66442 3.06462,-1.68808 5.97856,-3.64792 8.96861,-5.4675 11.18887,-6.94584 22.29225,-14.03271 33.59454,-20.79352 11.67386,-6.85997 23.57368,-13.28946 35.38058,-19.92795 5.64556,-3.20246 11.35755,-6.30083 16.92155,-9.6437 0.79153,-0.70981 0.44417,-2.14808 -0.33278,-2.75558 -0.20268,-0.14875 -0.45157,-0.23228 -0.70312,-0.21289 z m -206.748045,0.0899 c -1.397763,0.14134 -1.724629,2.16718 -0.745696,3.01797 1.730355,1.17377 3.602916,2.1495 5.386922,3.24845 28.582848,16.87366 57.159406,33.75522 85.804769,50.51991 1.16998,0.67785 2.33426,1.36521 3.51494,2.02421 0.70585,0.027 0.89253,-0.79423 0.6029,-1.31603 -0.016,-0.5512 -0.38926,-0.89998 -0.8615,-1.14413 -6.8724,-4.41033 -14.048655,-8.35347 -20.878575,-12.79768 -0.89499,-1.18816 -1.39908,-2.64715 -2.03502,-3.99058 -0.52046,-1.10965 -0.90633,-2.34415 -1.50798,-3.37844 -19.90261,-10.54745 -39.77137,-21.1609 -59.711084,-31.63687 -2.960371,-1.49136 -5.850341,-3.14893 -8.923195,-4.39996 -0.206802,-0.0788 -0.426563,-0.13294 -0.646481,-0.14685 z m 138.201165,3.8164 c -1.90201,10.10802 -3.80147,20.21651 -5.70508,30.32422 1.50101,0.088 3.03451,0.32662 4.51538,0.321 5.2494,-2.87593 10.49868,-5.7521 15.74829,-8.62764 -1.22122,-3.47504 -2.39354,-6.97546 -3.64843,-10.43359 -2.839,-3.95039 -6.02192,-7.65177 -9.35911,-11.18859 -0.45454,-0.46446 -0.90905,-0.92894 -1.36355,-1.39344 -0.0625,0.33268 -0.125,0.66536 -0.1875,0.99804 z M 84.548317,90.38409 c -3.249821,2.93829 -5.968192,6.40433 -8.67791,9.83099 -0.636238,0.84647 -1.376807,1.63834 -1.600164,2.70761 -1.15596,3.25733 -2.312292,6.51453 -3.468019,9.77195 5.314703,2.8379 10.631674,5.67157 15.947261,8.50781 1.32083,-0.1595 2.64602,-0.2896 3.95703,-0.51953 -1.81733,-10.30843 -3.63281,-20.61719 -5.44921,-30.92578 -0.23633,0.20898 -0.47266,0.41797 -0.708988,0.62695 z m 34.234373,3.04883 c -0.7629,0.11689 -1.71408,-0.11411 -2.34571,0.39063 -0.28616,0.78754 -0.19176,1.73023 -0.3326,2.577 -0.45203,4.86523 -1.02618,9.72242 -1.37247,14.59565 -0.0774,0.63401 -0.0543,1.16756 0.72929,0.94063 3.28425,0 6.56849,0 9.85274,0 0.004,-3.10919 -0.49665,-6.19328 -0.74096,-9.28855 -0.28665,-2.9039 -0.59065,-5.80611 -0.86256,-8.71145 -0.4704,-0.64298 -1.42758,-0.37516 -2.12124,-0.49265 -0.93497,-0.0372 -1.87113,-0.0292 -2.80649,-0.0113 z m 57.17382,25.95898 c -1.20779,0.2708 -2.20651,1.11727 -3.28419,1.6953 -3.12135,1.92875 -6.229,3.8786 -9.33885,5.82619 -0.53928,1.75484 -1.33562,3.45034 -1.63451,5.26781 -0.13486,0.91308 0.97988,0.99345 1.55244,1.35328 1.56682,0.71238 3.06545,1.63419 4.72465,2.10938 0.53097,0.17677 0.65889,-0.6072 0.9414,-0.91016 2.62192,-4.68801 5.18545,-9.41262 7.57617,-14.22265 0.2972,-0.45385 0.0825,-1.17788 -0.53711,-1.11915 z m -111.333974,2.72071 c 1.110223,2.61324 2.500395,5.10869 3.768877,7.65107 1.039444,1.89732 1.890914,3.92042 3.180342,5.66729 0.565647,0.66019 1.318943,-0.14716 1.940578,-0.32502 1.462688,-0.75123 3.08858,-1.24392 4.411036,-2.23624 0.933653,-0.81348 0.23625,-2.07875 -0.150053,-2.98481 -0.54302,-1.66547 -2.287996,-2.38085 -3.634275,-3.27518 -3.24036,-1.90666 -6.446767,-3.88111 -9.780177,-5.62406 0.08789,0.37565 0.175781,0.7513 0.263672,1.12695 z m 49.248044,-0.71094 c -0.96264,2.58241 -2.13839,5.1025 -2.83399,7.77344 0.54908,4.6497 1.34643,9.28272 2.00586,13.92383 0.70483,4.28719 1.21203,8.61372 2.15171,12.85739 0.13231,1.03231 0.95636,1.95466 2.04333,1.94825 1.93784,0.0919 3.89365,0.1278 5.8284,-0.0302 1.14651,-0.0977 1.73837,-1.22485 1.8786,-2.24794 0.97722,-4.78106 1.59663,-9.62768 2.35986,-14.44697 0.56515,-3.97999 1.2522,-7.95258 1.70881,-11.94181 -0.6778,-2.72997 -1.88967,-5.29617 -2.86443,-7.92912 -0.25118,-0.52088 -1.13737,-0.11292 -1.65589,-0.24276 -3.49713,0 -6.99427,0 -10.4914,0 -0.0436,0.11198 -0.0872,0.22396 -0.13086,0.33594 z m -52.171872,1.95899 c -0.48053,9.87608 -0.843441,19.7577 -1.259766,29.63671 1.847824,5.99524 3.548783,12.03981 5.556641,17.98243 0.201849,0.69415 0.492663,0.97178 0.990234,0.29101 1.912103,-2.22058 3.602127,-4.62391 5.394531,-6.94141 -0.279724,-1.62959 -0.561368,-3.25886 -0.839843,-4.88867 -1.17064,-1.18158 -2.338239,-2.36618 -3.507813,-3.54883 -0.08351,-3.44489 -0.360144,-6.89475 -0.183594,-10.33984 0.650244,-0.84359 1.674022,-1.34048 2.517579,-1.98242 -0.163472,-2.10953 -0.205764,-4.25221 -0.441407,-6.3418 -2.698123,-5.27408 -5.405401,-10.54347 -8.117187,-15.81054 -0.03646,0.64778 -0.07292,1.29557 -0.109375,1.94336 z m 88.253902,-0.57032 c -0.87143,-0.062 -1.3233,0.8053 -1.37891,1.5586 -0.14034,0.69233 -0.16229,1.71763 -1.055,1.82712 -1.75287,0.62186 -3.54923,1.18069 -5.38089,1.50222 -0.49672,0.009 -1.09955,-0.41113 -0.92035,-0.97402 3.2e-4,-0.89707 0.3848,-1.92599 -0.15743,-2.72837 -0.70122,-0.5005 -1.18241,0.44612 -1.46553,0.96492 -0.71793,1.28755 -1.29197,2.64775 -1.92314,3.97844 -2.13374,0.68799 -4.32453,1.20246 -6.42969,1.98242 -0.63071,0.3443 -0.36747,1.24158 -0.57514,1.83339 -0.41014,2.689 -0.81792,5.37903 -1.30572,8.05528 6.68902,-3.97712 13.38422,-7.94384 20.07617,-11.91601 0.85072,-2.02894 1.69567,-4.06029 2.54492,-6.08985 -0.67639,0.004 -1.35299,-0.008 -2.02929,0.006 z m 27.73633,0.31836 c -0.70647,0.74369 -1.07523,1.77639 -1.60923,2.65644 -2.04685,3.82763 -3.9985,7.70557 -5.99429,11.56036 -0.13203,2.09973 -0.26613,4.19936 -0.40234,6.29883 0.80566,0.61934 1.97553,0.92142 2.4375,1.88867 0.3935,1.83083 0.0798,3.72839 0.078,5.58461 -0.0631,1.5994 -0.12626,3.1988 -0.18938,4.7982 -1.10107,1.23873 -2.48526,2.26677 -3.32756,3.71267 -0.60112,1.5016 -0.67474,3.15086 -1.02596,4.72092 2.04271,2.65776 4.08454,5.31618 6.12891,7.97266 1.94222,-6.38491 3.88685,-12.7691 5.82812,-19.1543 -0.38218,-9.88782 -0.76039,-19.77586 -1.13281,-29.66406 -0.21964,-0.63037 -0.0969,-0.8737 -0.79101,-0.375 z m -87.957025,-0.30664 c -0.86592,-0.0322 -1.15041,0.97812 -0.85458,1.6522 0.44243,1.50688 1.13994,2.92364 1.71005,4.38491 6.60851,3.8952 13.159605,7.89065 19.828115,11.68164 0.038,-2.01441 -0.47057,-3.98983 -0.72803,-5.97824 -0.20698,-1.18258 -0.34421,-2.37943 -0.6372,-3.5452 -2.10627,-0.77837 -4.33373,-1.2298 -6.39454,-2.12304 -1.07969,-1.54249 -1.67358,-3.3835 -2.845695,-4.86328 -0.51591,-0.55276 -1.16807,0.16497 -1.0957,0.75976 -0.0873,0.83535 0.25257,1.70953 0.0469,2.51563 -0.74984,0.7848 -1.84564,0.11164 -2.72099,-0.0373 -1.37249,-0.38391 -2.70966,-0.70248 -4.00753,-1.21077 -0.59567,-0.95266 -0.34396,-2.38934 -1.35937,-3.0625 -0.28743,-0.14647 -0.62324,-0.17586 -0.94141,-0.17383 z m 69.357415,6.9707 c -4.37096,2.49667 -8.62374,5.20415 -12.91904,7.83238 -3.24843,2.04035 -6.55448,3.99804 -9.72549,6.152 -0.45964,0.42708 -0.91927,0.85417 -1.37891,1.28125 1.36483,-0.21926 2.69649,-0.56891 3.96137,-1.13218 4.79935,-1.88403 9.54933,-3.89065 14.2591,-5.98725 0.45938,-0.19275 1.03023,-0.51559 1.39282,0.0296 0.42878,1.00943 0.16793,2.18016 0.21288,3.2539 -0.14089,3.35568 -0.35539,6.70289 -0.54687,10.05078 -3.10927,3.8889 -6.21671,7.77924 -9.32618,11.66797 -1.81129,12.65904 -3.65453,25.31351 -5.42382,37.97852 -0.0438,0.56618 0.74124,1.08369 1.09961,0.51367 2.71878,-2.7333 5.33405,-5.56751 7.99023,-8.36133 1.97653,-5.42313 4.14655,-10.78101 5.89083,-16.28412 0.70067,-2.18773 0.61307,-4.51825 0.91023,-6.77604 1.07369,-11.13225 2.03185,-22.29193 3.22613,-33.39871 0.22551,-1.91963 0.41576,-3.86124 1.05876,-5.69543 0.14828,-0.41931 0.10487,-1.20547 -0.16194,-1.38152 -0.17323,0.0855 -0.34647,0.17102 -0.5197,0.25652 z m -78.3457,1.625 c -0.125746,0.85922 0.321481,1.71015 0.311521,2.58397 1.513315,14.07687 2.694694,28.20693 4.075194,42.3008 2.07729,5.58991 4.15608,11.17927 6.23243,16.76953 2.68186,2.77957 5.24112,5.68638 8.07031,8.31836 0.53125,0.31164 1.281505,0.5509 0.942685,-0.3464 -0.688525,-5.97814 -1.618605,-11.92759 -2.448965,-17.88858 -0.97001,-6.73478 -1.95124,-13.46802 -2.92341,-20.20252 -2.88997,-3.69188 -5.87841,-7.29821 -8.66932,-11.06445 -0.58786,-0.68368 -0.80757,-1.56321 -0.74421,-2.45088 -0.10973,-3.74847 -0.57023,-7.46964 -0.42921,-11.22 0.12802,-0.82374 1.1284,-0.3807 1.63436,-0.22567 3.00161,1.19903 5.91711,2.6073 8.92536,3.79586 1.94853,0.76051 3.86356,1.6572 5.868965,2.24131 0.77761,0.1391 1.01467,-0.0699 0.52344,-0.74804 -0.55581,-0.64209 -1.46323,-0.96322 -2.169035,-1.45657 -6.08349,-3.588 -12.16012,-7.18938 -18.327673,-10.63101 -0.521833,-0.22882 -0.72863,-0.5398 -0.872442,0.22429 z m 80.13085,4.05469 c -0.49936,3.72257 -0.73599,7.48169 -1.0267,11.22736 -0.031,0.68282 -0.12769,1.36729 -0.0417,2.04999 1.57832,0.48714 3.26454,0.48896 4.89469,0.70799 1.80821,0.1754 3.61696,0.34577 5.42563,0.51661 -0.0252,-1.15345 0.37464,-2.37718 -0.0566,-3.48632 -0.61731,-0.93794 -2.22962,-1.13498 -2.20757,-2.4822 -0.0624,-1.9773 0.079,-3.95617 0.10796,-5.93382 -2.32016,-1.06403 -4.57637,-2.27076 -6.95899,-3.1914 -0.0456,0.19726 -0.0911,0.39453 -0.13672,0.59179 z m -82.552725,-0.17578 c -1.638948,0.44336 -3.110766,1.3605 -4.666909,2.02696 -0.539454,0.25461 -1.078156,0.51081 -1.618248,0.76406 0.05398,2.03722 0.304837,4.08038 0.195519,6.11569 -0.272699,1.05999 -1.419283,1.46671 -2.140831,2.15579 -0.586507,0.9698 -0.239664,2.18344 -0.339844,3.25664 -0.118104,0.75065 1.004975,0.13733 1.474157,0.24292 3.100077,-0.28864 6.199082,-0.58836 9.297328,-0.89604 -0.413262,-4.37057 -0.80957,-8.74928 -1.33511,-13.10424 -0.0709,-0.38992 -0.486191,-0.63628 -0.866062,-0.56178 z m 9.54492,5.58399 c -0.81543,0.0144 -0.57616,0.99754 -0.60408,1.54917 0.0583,2.67053 0.26672,5.32989 0.40096,7.9977 1.38812,1.71079 2.70419,3.48748 4.30664,5.00977 -0.24288,-1.61029 -0.78179,-3.14223 -1.33681,-4.66175 -0.80969,-2.24988 -0.37142,-4.67469 -0.66963,-7.00302 -0.0887,-0.98748 -0.10336,-2.34444 -1.25814,-2.69304 -0.26487,-0.11044 -0.54959,-0.20628 -0.83894,-0.19883 z m 64.197265,0.002 c -0.92716,0.0665 -1.81613,0.73851 -1.82622,1.72683 -0.30717,2.21273 -0.22812,4.45481 -0.4023,6.67551 -0.20047,1.57064 -1.06568,2.97043 -1.36914,4.50195 0.0316,0.61699 -0.0806,1.59518 0.56208,0.67783 1.26513,-1.2197 2.25635,-2.69032 3.38128,-4.03525 0.13053,-2.99143 0.41278,-5.98368 0.36523,-8.97851 0.0311,-0.42327 -0.33701,-0.58478 -0.71093,-0.56836 z m -4.86328,2.04492 c -1.5818,0.44706 -3.19602,1.09727 -4.24015,2.43281 -1.5613,1.78024 -3.00309,3.6615 -4.50595,5.49102 -3.08101,0.0352 -6.13515,-0.41829 -9.22266,-0.41797 -0.85122,-0.0547 -1.62082,0.63692 -1.5218,1.51208 0.001,0.59061 -0.0732,1.21111 0.18196,1.76331 3.01418,0.51874 6.00202,1.18834 9.03906,1.55664 2.8151,-1.43269 5.48067,-3.15087 8.19141,-4.77148 0.95828,-0.70503 2.26748,-1.19978 2.74023,-2.37305 0.25868,-1.55151 0.29471,-3.17207 0.0352,-4.72461 -0.0769,-0.27869 -0.38755,-0.63448 -0.69726,-0.46875 z m -54.787105,0.0684 c -0.55286,0.47432 -0.28468,1.36808 -0.37891,2.02148 0.0543,1.26739 -0.0471,2.58534 0.30664,3.81055 0.54191,0.5708 1.37735,0.88511 2.04097,1.34684 2.88767,1.6622 5.676005,3.53011 8.721545,4.8947 0.89197,0.36521 1.83082,-0.17712 2.73371,-0.22509 1.91981,-0.38401 3.88721,-0.5659 5.77331,-1.09653 0.9615,-0.293 0.7445,-1.42682 0.69531,-2.1914 -0.10636,-1.05356 -1.31468,-1.21219 -2.16325,-1.13815 -2.78456,0.11857 -5.52676,0.45329 -8.3055,0.43307 -1.74148,-2.10526 -3.366665,-4.32087 -5.253905,-6.29688 -1.18197,-0.72213 -2.479,-1.3297 -3.83203,-1.63672 -0.1348,-0.0388 -0.23358,-0.0136 -0.33789,0.0781 z m 67.431635,8.14648 c -0.67319,-0.0752 -0.49539,0.75797 -0.612,1.20463 -0.57229,4.99242 -0.86357,10.00219 -1.55793,14.97311 2.67459,-1.14232 5.34757,-2.28842 8.01758,-3.44141 0.31773,-1.83424 0.63651,-3.66821 0.95703,-5.50195 1.06585,-1.22987 2.43491,-2.24818 3.20509,-3.70508 0.30114,-0.84359 0.12606,-1.75731 0.17383,-2.63281 -3.38664,-0.36196 -6.77997,-0.77926 -10.1836,-0.89649 z m -80.064451,0.0332 c -3.259073,0.23122 -6.510121,0.56951 -9.763672,0.86914 0.01469,1.19566 -0.207765,2.58422 0.740158,3.51398 0.824161,1.0267 1.885032,1.89253 2.673618,2.91654 0.31599,1.79734 0.629973,3.59504 0.949505,5.39174 2.580826,1.06303 5.091161,2.31609 7.748047,3.18164 -0.0399,-2.8992 -0.459259,-5.78034 -0.683941,-8.66936 -0.268588,-2.39553 -0.40177,-4.80877 -0.790668,-7.18806 -0.291171,-0.0135 -0.581617,-0.042 -0.873047,-0.0156 z m 13.906246,2.05273 c 1.02885,2.89101 2.16326,5.75517 3.1269,8.6627 1.2969,8.77444 2.59243,17.54909 3.888725,26.32363 0.87972,0.81634 1.62719,1.82665 2.62891,2.48633 0.80382,0.48715 0.91309,0.11613 0.68801,-0.66749 -1.3725,-9.70602 -2.98054,-19.38048 -4.320825,-29.09228 -0.14488,-1.10747 0.696715,-2.15356 1.172945,-3.13759 0.50872,-0.86285 -0.31377,-1.6632 -1.033155,-2.04193 -2.20303,-1.33171 -4.4419,-2.60395 -6.65736,-3.91618 0.16862,0.46094 0.33723,0.92187 0.50585,1.38281 z m 51.861325,-0.36719 c -1.88562,0.7832 -3.58359,1.97607 -5.36331,2.97549 -0.52926,0.31356 -1.0582,0.62766 -1.58786,0.94053 0.63553,1.25173 1.62729,2.42445 1.78655,3.85337 -1.27843,9.23998 -2.69213,18.46253 -4.1336,27.67873 -0.0259,0.6947 -0.43966,1.42739 -0.17639,2.10071 0.61888,0.6581 1.31654,-0.28112 1.76639,-0.69218 0.47046,-0.54914 1.18312,-0.97898 1.48166,-1.61641 1.26022,-8.56471 2.46683,-17.14287 3.75884,-25.69943 1.03874,-2.95162 2.2277,-5.85848 3.09467,-8.86503 0.0438,-0.75078 0.29988,-0.9751 -0.62695,-0.67578 z m -33.83789,3.05274 c -2.35425,0.2832 -4.70035,0.70368 -7.00959,1.24245 -1.18315,0.23371 -2.00752,1.20578 -2.40429,2.29598 -0.83565,1.4853 -0.25225,3.22676 -0.10622,4.808 0.43438,2.94237 0.84169,5.89023 1.36385,8.81763 0.77339,1.09688 2.15652,1.53366 3.2666,2.21017 0.85302,0.54303 2.0255,0.91793 2.31053,1.99949 1.51993,3.57299 2.70127,7.2867 4.30568,10.82159 0.46409,0.42613 0.95388,0.91772 0.91959,-0.046 0.60921,-3.38983 0.9736,-6.84495 1.47104,-10.23529 1.21663,-1.37236 2.41461,-2.82278 3.93057,-3.87421 0.56896,-0.20622 1.02391,0.49384 1.46231,0.76973 1.06403,0.94657 2.04883,1.97782 3.07391,2.96581 0.53353,3.83155 0.85598,7.69907 1.63086,11.49219 1.17585,-1.58121 1.67731,-3.51714 2.42802,-5.31167 0.96464,-2.44307 1.80661,-4.95109 2.92745,-7.3231 1.52979,-1.33027 3.641,-1.82468 5.08399,-3.25781 0.38082,-0.84489 0.36662,-1.83857 0.5644,-2.74696 0.50338,-3.24866 0.9831,-6.50084 1.46294,-9.75304 -0.69224,-1.21846 -1.08411,-2.83479 -2.41016,-3.5332 -2.56258,-0.63936 -5.19013,-1.03049 -7.81673,-1.29264 -0.81531,-0.15439 -1.29555,0.7151 -1.27311,1.41959 -0.63234,1.13846 -1.86119,1.79559 -2.78951,2.67522 -1.67178,0.12411 -3.42682,0.0181 -5.1308,0.0533 -0.97513,-0.0426 -2.01053,0.0849 -2.94841,-0.0629 -0.93755,-0.86269 -2.15048,-1.50025 -2.84026,-2.59136 0.0162,-0.64095 -0.1509,-1.50515 -0.95703,-1.5293 -0.17169,-0.0209 -0.34309,-0.0191 -0.51563,-0.0137 z m 54.25781,10.32617 c -1.9885,0.50778 -3.86404,1.40988 -5.75967,2.19004 -1.1976,0.51688 -2.75627,1.17405 -2.83994,2.68691 0.009,0.78152 -0.20787,1.66968 0.17578,2.37891 0.31311,0.42843 0.89658,0.17773 1.23633,-0.0234 0.86541,1.40449 1.58782,2.91209 2.56641,4.23828 0.69484,0.61086 1.64052,0.36213 2.36343,-0.0527 2.54534,-1.19532 5.10499,-2.39519 7.4979,-3.87506 0.56952,-0.45416 -0.0995,-1.17051 -0.36321,-1.63403 -1.36511,-1.9685 -2.73808,-3.95514 -4.37117,-5.71167 -0.17178,-0.10282 -0.27854,-0.29844 -0.50586,-0.19727 z m -91.923819,-0.008 c -0.737414,0.1646 -1.109331,0.99899 -1.615465,1.51485 -1.317155,1.72095 -2.694236,3.42131 -3.759535,5.31327 -0.312465,0.67567 0.502188,0.90765 0.957338,1.18794 2.526922,1.33428 5.009023,2.79748 7.693053,3.79644 1.14271,0.31915 1.782666,-0.92306 2.300494,-1.71082 0.595982,-0.92727 1.107345,-1.91139 1.744428,-2.81067 0.484667,0.39608 1.305006,0.18172 1.314453,-0.51172 0.02885,-1.09518 0.175369,-2.37189 -0.486329,-3.30859 -1.67814,-1.08579 -3.593138,-1.76252 -5.419921,-2.5625 -0.89996,-0.31307 -1.776304,-0.78819 -2.728516,-0.9082 z m 61.113279,10.3164 c -0.9414,0.44768 -1.99912,0.90892 -2.39219,1.96259 -1.56916,3.49528 -2.81207,7.12809 -4.1885,10.70208 -0.70164,2.03629 -1.58848,4.04447 -1.93671,6.17931 -0.0133,0.72925 0.004,1.45959 0.002,2.18923 2.19502,-1.43493 4.41444,-2.83148 6.58399,-4.30469 0.63594,-2.43199 0.90523,-4.94878 1.32812,-7.42578 0.50887,-3.26277 0.96743,-6.53386 1.54688,-9.78516 -0.31446,0.16081 -0.62891,0.32162 -0.94336,0.48242 z m -30.99024,0.58594 c 0.89703,5.27767 1.52121,10.60277 2.5,15.86524 0.33567,0.57495 1.11742,0.83836 1.64794,1.26656 1.44187,0.90044 2.81643,1.93782 4.35792,2.66312 0.84633,-0.27941 0.87186,-1.43298 0.68034,-2.16575 -0.97665,-3.54122 -2.41632,-6.93565 -3.68974,-10.37743 -0.87017,-2.12838 -1.54126,-4.35856 -2.66325,-6.37205 -0.67575,-1.04798 -2.01929,-1.29427 -3.02071,-1.92852 0.0625,0.34961 0.125,0.69922 0.1875,1.04883 z m 15.48047,-0.32226 c -0.6353,0.70143 -1.43672,1.32134 -1.97611,2.06982 -0.90593,6.82063 -1.81312,13.64108 -2.72115,20.46143 1.23998,1.86528 2.32519,3.84053 3.6621,5.63671 0.7881,1.00931 2.48867,0.77699 3.10538,-0.30457 1.2452,-1.71121 2.26227,-3.5769 3.39462,-5.36339 -0.90909,-6.84162 -1.82162,-13.68283 -2.73828,-20.52344 -0.78195,-0.7864 -1.56799,-1.56873 -2.35156,-2.35352 -0.125,0.12565 -0.25,0.2513 -0.375,0.37696 z" /><g
     id="layer1"
     transform="translate(32.222412,-3.4211671)" /><path
     style="fill:#ffff00;fill-opacity:1;stroke-width:0.493182"
     d="m 358.27248,471.47314 c -4.61652,-1.44664 -3.2546,4.08793 -16.59811,-67.45175 -25.33863,-135.85017 -45.13463,-243.78154 -46.92073,-255.82022 -2.0303,-13.68468 -1.95056,-14.84851 1.14847,-16.76382 3.43215,-2.12119 7.12741,-0.87013 8.33533,2.82198 1.30766,3.997 22.12564,117.47072 43.45454,236.86008 14.55523,81.47352 15.99928,90.12445 16.17404,96.89457 l 0.10225,3.96114 -1.72613,0.10053 c -0.94938,0.0553 -2.73572,-0.21584 -3.96966,-0.60251 z"
     id="path3"
     transform="scale(0.26458333)" /><path
     style="fill:#ffff00;fill-opacity:1;stroke-width:0.493182"
     d="m 543.85639,471.89509 c -1.19667,-0.48287 -0.58962,-5.44418 3.84869,-31.45452 14.29416,-83.76959 51.39876,-290.2248 54.99295,-305.98839 0.14707,-0.64507 0.93203,-1.83747 1.74434,-2.64978 1.3162,-1.3162 1.72938,-1.45265 3.7969,-1.25391 1.34582,0.12937 3.20009,0.77867 4.416,1.54631 1.92841,1.21747 2.09594,1.49041 2.09496,3.41313 -0.002,4.30343 -3.58864,24.03054 -36.78282,202.3217 -9.19516,49.38865 -16.67255,89.0855 -21.44193,113.83349 -1.61081,8.3584 -2.92875,15.58798 -2.92875,16.06573 0,2.34847 -6.91508,5.30625 -9.74034,4.16624 z"
     id="path4"
     transform="scale(0.26458333)" /><path
     style="fill:#ffff00;fill-opacity:1;stroke-width:0.493182"
     d="m 415.2592,548.48124 c -1.085,-0.63839 -18.95052,-11.10152 -39.70115,-23.2514 C 313.5393,488.91671 99.555741,362.8559 68.239069,344.18379 c -4.241023,-2.52865 -8.315011,-5.31542 -9.053306,-6.19284 -1.189076,-1.41314 -1.316838,-1.90301 -1.118879,-4.29013 0.187234,-2.2578 0.476989,-2.92135 1.786653,-4.09154 0.859747,-0.76818 2.109968,-1.3967 2.778269,-1.3967 3.338554,0 22.783303,9.97576 122.804604,63.00257 80.86686,42.87197 137.23463,72.81284 138.11007,73.35991 0.61385,0.3836 2.33635,3.77206 4.42228,8.69943 5.54019,13.08696 8.53107,18.65915 10.84724,20.20907 5.26361,3.52228 18.67699,11.7714 36.06303,22.17849 10.54534,6.31232 24.68774,14.90227 31.42755,19.08877 12.98445,8.06542 13.63785,8.65568 13.63785,12.32007 0,2.74709 -1.59652,3.22767 -4.68523,1.41035 z"
     id="path5"
     transform="scale(0.26458333)" /><path
     style="fill:#ffff00;fill-opacity:1;stroke-width:0.493182"
     d="m 486.72541,548.97164 c -0.51339,-1.33788 1.35527,-5.74081 2.94566,-6.94054 2.88464,-2.17605 16.79913,-10.73126 41.97907,-25.81047 13.83375,-8.28445 27.70449,-16.59739 30.82387,-18.47319 3.11937,-1.8758 6.26394,-3.97214 6.98792,-4.65852 1.69771,-1.60955 3.41337,-4.88033 7.97076,-15.19562 5.55626,-12.57616 5.48517,-12.47337 10.55314,-15.25938 20.37333,-11.19982 216.79234,-115.88005 242.77916,-129.38757 8.81243,-4.58056 12.69029,-5.91353 14.70739,-5.05549 3.1943,1.35879 4.68057,6.37961 2.80056,9.46066 -0.92933,1.52304 -33.09708,19.83409 -111.21252,63.30618 -80.53711,44.81978 -87.83805,49.15176 -184.9677,109.74983 -29.44408,18.36982 -55.69538,34.6471 -58.33621,36.17171 -4.87419,2.814 -6.56151,3.31613 -7.0311,2.0924 z"
     id="path6"
     transform="scale(0.26458333)" /><path
     style="fill:#ff0000;fill-opacity:1;stroke-width:0.145286"
     d="m 452.11602,776.85441 c -1.10633,-0.25025 -2.21948,-0.80715 -2.97164,-1.48669 -1.03031,-0.93082 -4.17763,-5.47994 -7.72309,-11.16293 -4.7586,-7.6275 -5.57922,-8.93278 -6.21116,-9.87945 l -0.67889,-1.017 5.14423,-38.6461 5.14423,-38.6461 0.52157,-0.65379 c 0.28687,-0.35958 2.27388,-2.41901 4.41558,-4.57651 l 3.89401,-3.92272 4.39667,4.3945 4.39667,4.39451 5.17353,38.75546 5.17353,38.75546 -1.91352,3.12365 c -1.05244,1.71801 -2.88727,4.72543 -4.07741,6.68316 -2.53676,4.17289 -6.9774,10.8699 -7.74332,11.67782 -1.70938,1.80314 -4.62596,2.7304 -6.94099,2.20673 z"
     id="path7"
     transform="scale(0.26458333)" /><path
     style="fill:#0000ff;fill-opacity:1;stroke-width:0.179729"
     d="m 444.47031,596.79413 c -1.53834,-0.0809 -3.01692,-0.25496 -3.44346,-0.40536 -1.88183,-0.66356 -3.60079,-2.14934 -4.55252,-3.93498 -1.187,-2.22703 -3.43873,-14.2592 -6.65535,-35.56287 -0.79851,-5.28853 -1.72607,-11.35439 -2.06125,-13.47969 -0.33518,-2.1253 -0.69499,-4.47077 -0.79957,-5.21215 -0.10459,-0.74138 -1.19691,-8.02041 -2.42738,-16.17563 -2.46776,-16.3555 -3.19067,-21.37897 -4.14537,-28.80588 l -0.64167,-4.99177 0.73054,-2.52176 c 1.11191,-3.83821 2.79087,-8.48158 6.10366,-16.88043 1.65708,-4.20117 3.31597,-8.42705 3.68641,-9.39085 l 0.67354,-1.75236 21.504,-0.0416 c 11.8272,-0.0229 21.88677,-0.0397 22.35459,-0.0374 1.02672,0.005 1.69489,0.44419 2.03586,1.3382 0.13172,0.34537 1.61034,4.10571 3.28582,8.3563 4.37364,11.09566 5.89844,15.39754 7.03381,19.84432 l 0.3602,1.41078 -0.36141,2.94201 c -0.65325,5.31764 -1.61012,12.16702 -2.79631,20.01628 -0.64235,4.25059 -1.76775,11.73182 -2.50087,16.62495 -4.97077,33.17657 -6.53454,43.10337 -8.28152,52.57079 -1.82861,9.90974 -2.07477,10.81183 -3.50777,12.85472 -1.33674,1.90565 -2.84227,2.76619 -5.36653,3.06743 -1.95241,0.233 -16.66278,0.3544 -20.22745,0.16694 z"
     id="path8"
     transform="scale(0.26458333)" /><path
     style="fill:#00ff00;fill-opacity:1;stroke-width:0.110638"
     d="m 434.71442,423.13805 c -0.60656,-0.18992 -0.98036,-0.69472 -1.10332,-1.49003 -0.093,-0.60181 0.62699,-9.75902 1.53584,-19.53241 0.41117,-4.42148 0.62676,-6.60138 2.09543,-21.18727 0.51468,-5.1115 1.08723,-10.88683 1.27234,-12.83407 0.18511,-1.94724 0.38507,-3.88894 0.44434,-4.3149 0.0593,-0.42596 0.18432,-1.91958 0.27786,-3.31915 0.17775,-2.6596 0.36989,-4.09093 0.69712,-5.19325 0.18569,-0.62551 0.22517,-0.67227 0.86327,-1.02242 1.22814,-0.67392 2.0318,-0.80487 5.8503,-0.95322 6.51288,-0.25304 16.75081,-0.081 18.39577,0.30917 0.88615,0.21017 1.64305,0.59804 2.10367,1.07802 l 0.36323,0.37849 0.49027,5.08033 c 0.26964,2.79418 1.01095,10.308 1.64734,16.69737 0.6364,6.38938 1.28755,13.01109 1.44701,14.71492 0.15946,1.70384 0.53704,5.44596 0.83907,8.31584 0.68291,6.48903 1.04654,10.35502 1.26272,13.42463 0.17707,2.51429 0.38841,7.29137 0.39028,8.82187 l 0.001,0.91122 -18.94685,0.038 c -10.42076,0.0209 -19.0962,0.069 -19.27875,0.10693 -0.18256,0.0379 -0.47418,0.0244 -0.64806,-0.03 z"
     id="path9"
     transform="scale(0.26458333)" /><path
     style="fill:#ffff00;fill-opacity:1;stroke-width:0.108775"
     d="m 413.22687,528.68502 c -10.46363,-5.98838 -21.28743,-12.34571 -41.05385,-24.11287 -15.40672,-9.17178 -21.03428,-12.5168 -25.46109,-15.13408 l -4.30438,-2.54489 -0.25361,-0.66121 c -0.13948,-0.36367 -1.02778,-2.51103 -1.974,-4.77191 -2.06032,-4.92293 -2.89595,-7.07825 -3.78327,-9.75809 -0.85376,-2.57849 -0.95501,-3.11459 -0.78424,-4.15245 0.24073,-1.463 0.88157,-2.47159 1.90602,-2.99981 1.04052,-0.5365 3.55701,-0.43115 4.91258,0.20567 0.29477,0.13848 0.83083,0.55094 1.19124,0.91658 1.13468,1.15113 1.64372,2.33301 2.45512,5.70031 0.63015,2.61511 0.87206,3.39346 1.35338,4.35437 l 0.35415,0.70704 1.57465,0.56591 c 2.32235,0.83463 5.28722,1.72326 9.86925,2.958 2.24348,0.60457 5.03355,1.36514 6.20016,1.69016 2.75991,0.76893 3.22348,0.85797 4.45977,0.85654 1.2388,-0.001 2.02103,-0.24382 2.88021,-0.89251 0.5697,-0.43013 0.57246,-0.43514 0.69505,-1.25938 0.16431,-1.10472 0.15516,-1.94964 -0.0404,-3.73307 -0.41046,-3.74269 -0.40213,-5.81805 0.0272,-6.78564 0.5008,-1.12861 1.62006,-1.93548 2.48919,-1.79443 0.68006,0.11035 1.14591,0.52988 2.14811,1.93451 1.22957,1.72327 2.39418,3.68188 3.90128,6.56106 0.65983,1.26054 1.70576,3.25669 2.32429,4.4359 1.18591,2.26088 2.57107,4.64199 3.26894,5.61932 0.46896,0.65676 0.38449,0.61413 3.68039,1.85748 2.61218,0.98542 4.37855,1.55623 10.44238,3.37448 4.34683,1.30341 10.23861,3.19212 10.37392,3.32555 0.24261,0.23923 1.73975,8.65468 2.63097,14.78876 0.12169,0.83756 0.48541,3.11368 0.80827,5.05803 1.23899,7.46143 1.51394,9.63521 1.69543,13.40415 0.066,1.37156 0.0996,2.51425 0.0745,2.53932 -0.0251,0.0251 -1.85279,-0.98869 -4.0616,-2.2528 z"
     id="path10"
     transform="scale(0.26458333)" /><path
     style="fill:#ffff00;fill-opacity:1;stroke-width:0.108775"
     d="m 489.04647,531.73202 c 0.37841,-1.62217 2.46616,-14.376 4.13027,-25.23139 0.39056,-2.54771 0.78001,-4.9462 0.86543,-5.32996 0.0854,-0.38377 0.21261,-1.40264 0.28264,-2.26417 0.19149,-2.35597 0.61246,-3.42203 1.57192,-3.98073 0.94555,-0.5506 7.01677,-2.48275 15.50805,-4.93538 2.48278,-0.71713 5.51725,-1.6145 6.74325,-1.99415 l 2.2291,-0.69027 1.43667,-3.09749 c 3.804,-8.20152 5.86529,-12.28205 7.12426,-14.10321 1.24059,-1.79458 2.45058,-2.36907 3.68195,-1.74812 0.36547,0.18429 0.55977,0.38361 0.78668,0.80702 0.76076,1.41958 0.90517,3.26968 0.52286,6.69877 -0.11503,1.03182 -0.24236,2.42068 -0.28295,3.08636 -0.0653,1.07106 -0.049,1.26506 0.14138,1.68601 0.45944,1.01567 1.71552,1.83071 2.95456,1.91712 0.54369,0.0379 1.18043,-0.0457 2.67175,-0.35082 2.45211,-0.50171 6.0797,-1.4082 8.73302,-2.18226 2.39919,-0.69993 9.85497,-3.1289 10.60749,-3.45574 0.28735,-0.12481 0.71259,-0.43319 0.94497,-0.6853 0.86746,-0.94108 1.22807,-2.00447 1.74761,-5.15351 0.38529,-2.33528 0.71296,-3.43271 1.2928,-4.32984 0.80227,-1.24127 1.80222,-1.96399 3.03966,-2.19693 0.67255,-0.1266 8.49702,-0.15305 8.49632,-0.0287 -2.4e-4,0.0449 -2.14399,5.20893 -4.76388,11.47569 l -4.76343,11.39411 -13.31993,7.90161 c -7.32596,4.34588 -24.13758,14.32308 -37.35916,22.17154 -13.22158,7.84846 -24.2742,14.40676 -24.56138,14.57398 l -0.52216,0.30405 z"
     id="path11"
     transform="scale(0.26458333)" /></svg>
